%TF.GenerationSoftware,KiCad,Pcbnew,10.0.3*%
%TF.CreationDate,2026-06-19T18:06:59+05:30*%
%TF.ProjectId,PCB_0,5043425f-302e-46b6-9963-61645f706362,1*%
%TF.SameCoordinates,Original*%
%TF.FileFunction,Copper,L1,Top*%
%TF.FilePolarity,Positive*%
%FSLAX46Y46*%
G04 Gerber Fmt 4.6, Leading zero omitted, Abs format (unit mm)*
G04 Created by KiCad (PCBNEW 10.0.3) date 2026-06-19 18:06:59*
%MOMM*%
%LPD*%
G01*
G04 APERTURE LIST*
%TA.AperFunction,ComponentPad*%
%ADD10R,2.540000X2.540000*%
%TD*%
%TA.AperFunction,ComponentPad*%
%ADD11C,2.540000*%
%TD*%
%TA.AperFunction,ComponentPad*%
%ADD12C,1.800000*%
%TD*%
%TA.AperFunction,ComponentPad*%
%ADD13R,1.800000X1.800000*%
%TD*%
%TA.AperFunction,ComponentPad*%
%ADD14C,1.600000*%
%TD*%
%TA.AperFunction,Conductor*%
%ADD15C,0.200000*%
%TD*%
G04 APERTURE END LIST*
D10*
%TO.P,BT101,1,+_1*%
%TO.N,VCC*%
X166987818Y-96000000D03*
D11*
%TO.P,BT101,2,-_2*%
%TO.N,GND*%
X157005618Y-96000000D03*
%TD*%
D12*
%TO.P,D101,2,A_2*%
%TO.N,Net-(D101-A)*%
X155270000Y-108930000D03*
D13*
%TO.P,D101,1,K_1*%
%TO.N,GND*%
X152730000Y-108930000D03*
%TD*%
D14*
%TO.P,R101,1*%
%TO.N,VCC*%
X163460000Y-109000000D03*
%TO.P,R101,2*%
%TO.N,Net-(D101-A)*%
X166000000Y-109000000D03*
%TD*%
%TO.N,GND*%
D15*
X152730000Y-93270000D02*
X153000000Y-93000000D01*
%TO.N,VCC*%
X162982200Y-108522200D02*
X163460000Y-109000000D01*
%TD*%
%TA.AperFunction,Conductor*%
%TO.N,GND*%
G36*
X172000000Y-85000000D02*
G01*
X175876000Y-85000000D01*
X175943039Y-85019685D01*
X175988794Y-85072489D01*
X176000000Y-85124000D01*
X176000000Y-117876000D01*
X175980315Y-117943039D01*
X175927511Y-117988794D01*
X175876000Y-118000000D01*
X146123980Y-118000000D01*
X146056941Y-117980315D01*
X146011186Y-117927511D01*
X145999980Y-117876020D01*
X145999980Y-117876000D01*
X145998424Y-107982155D01*
X151330000Y-107982155D01*
X151330000Y-108680000D01*
X152354722Y-108680000D01*
X152310667Y-108756306D01*
X152280000Y-108870756D01*
X152280000Y-108989244D01*
X152310667Y-109103694D01*
X152354722Y-109180000D01*
X151330000Y-109180000D01*
X151330000Y-109877844D01*
X151336401Y-109937372D01*
X151336403Y-109937379D01*
X151386645Y-110072086D01*
X151386649Y-110072093D01*
X151472809Y-110187187D01*
X151472812Y-110187190D01*
X151587906Y-110273350D01*
X151587913Y-110273354D01*
X151722620Y-110323596D01*
X151722627Y-110323598D01*
X151782155Y-110329999D01*
X151782172Y-110330000D01*
X152480000Y-110330000D01*
X152480000Y-109305277D01*
X152556306Y-109349333D01*
X152670756Y-109380000D01*
X152789244Y-109380000D01*
X152903694Y-109349333D01*
X152980000Y-109305277D01*
X152980000Y-110330000D01*
X153677828Y-110330000D01*
X153677844Y-110329999D01*
X153737372Y-110323598D01*
X153737379Y-110323596D01*
X153872086Y-110273354D01*
X153872093Y-110273350D01*
X153987187Y-110187190D01*
X153987190Y-110187187D01*
X154073350Y-110072093D01*
X154073354Y-110072086D01*
X154103213Y-109992031D01*
X154145084Y-109936097D01*
X154210548Y-109911680D01*
X154278821Y-109926531D01*
X154307076Y-109947683D01*
X154357636Y-109998243D01*
X154357641Y-109998247D01*
X154513192Y-110111260D01*
X154535978Y-110127815D01*
X154652501Y-110187187D01*
X154732393Y-110227895D01*
X154732396Y-110227896D01*
X154837221Y-110261955D01*
X154942049Y-110296015D01*
X155159778Y-110330500D01*
X155159779Y-110330500D01*
X155380221Y-110330500D01*
X155380222Y-110330500D01*
X155597951Y-110296015D01*
X155807606Y-110227895D01*
X156004022Y-110127815D01*
X156182365Y-109998242D01*
X156338242Y-109842365D01*
X156467815Y-109664022D01*
X156567895Y-109467606D01*
X156636015Y-109257951D01*
X156670500Y-109040222D01*
X156670500Y-108897648D01*
X162159500Y-108897648D01*
X162159500Y-109102351D01*
X162191522Y-109304534D01*
X162254781Y-109499223D01*
X162318691Y-109624653D01*
X162338751Y-109664022D01*
X162347715Y-109681613D01*
X162468028Y-109847213D01*
X162612786Y-109991971D01*
X162723067Y-110072093D01*
X162778390Y-110112287D01*
X162894607Y-110171503D01*
X162960776Y-110205218D01*
X162960778Y-110205218D01*
X162960781Y-110205220D01*
X163030571Y-110227896D01*
X163155465Y-110268477D01*
X163256557Y-110284488D01*
X163357648Y-110300500D01*
X163357649Y-110300500D01*
X163562351Y-110300500D01*
X163562352Y-110300500D01*
X163764534Y-110268477D01*
X163959219Y-110205220D01*
X164141610Y-110112287D01*
X164234590Y-110044732D01*
X164307213Y-109991971D01*
X164307215Y-109991968D01*
X164307219Y-109991966D01*
X164451966Y-109847219D01*
X164451968Y-109847215D01*
X164451971Y-109847213D01*
X164572284Y-109681614D01*
X164572285Y-109681613D01*
X164572287Y-109681610D01*
X164619516Y-109588917D01*
X164667489Y-109538123D01*
X164735310Y-109521328D01*
X164801445Y-109543865D01*
X164840483Y-109588917D01*
X164878753Y-109664025D01*
X164887715Y-109681614D01*
X165008028Y-109847213D01*
X165152786Y-109991971D01*
X165263067Y-110072093D01*
X165318390Y-110112287D01*
X165434607Y-110171503D01*
X165500776Y-110205218D01*
X165500778Y-110205218D01*
X165500781Y-110205220D01*
X165570571Y-110227896D01*
X165695465Y-110268477D01*
X165796557Y-110284488D01*
X165897648Y-110300500D01*
X165897649Y-110300500D01*
X166102351Y-110300500D01*
X166102352Y-110300500D01*
X166304534Y-110268477D01*
X166499219Y-110205220D01*
X166681610Y-110112287D01*
X166774590Y-110044732D01*
X166847213Y-109991971D01*
X166847215Y-109991968D01*
X166847219Y-109991966D01*
X166991966Y-109847219D01*
X166991968Y-109847215D01*
X166991971Y-109847213D01*
X167044732Y-109774590D01*
X167112287Y-109681610D01*
X167205220Y-109499219D01*
X167268477Y-109304534D01*
X167300500Y-109102352D01*
X167300500Y-108897648D01*
X167268477Y-108695466D01*
X167254904Y-108653694D01*
X167205218Y-108500776D01*
X167149993Y-108392393D01*
X167112287Y-108318390D01*
X167104556Y-108307749D01*
X166991971Y-108152786D01*
X166847213Y-108008028D01*
X166681613Y-107887715D01*
X166681612Y-107887714D01*
X166681610Y-107887713D01*
X166624653Y-107858691D01*
X166499223Y-107794781D01*
X166304534Y-107731522D01*
X166129995Y-107703878D01*
X166102352Y-107699500D01*
X165897648Y-107699500D01*
X165873329Y-107703351D01*
X165695465Y-107731522D01*
X165500776Y-107794781D01*
X165318386Y-107887715D01*
X165152786Y-108008028D01*
X165008028Y-108152786D01*
X164887715Y-108318386D01*
X164840485Y-108411080D01*
X164792510Y-108461876D01*
X164724689Y-108478671D01*
X164658554Y-108456134D01*
X164619515Y-108411080D01*
X164609993Y-108392393D01*
X164572287Y-108318390D01*
X164564556Y-108307749D01*
X164451971Y-108152786D01*
X164307213Y-108008028D01*
X164141613Y-107887715D01*
X164141612Y-107887714D01*
X164141610Y-107887713D01*
X164084653Y-107858691D01*
X163959223Y-107794781D01*
X163764534Y-107731522D01*
X163589995Y-107703878D01*
X163562352Y-107699500D01*
X163357648Y-107699500D01*
X163333329Y-107703351D01*
X163155465Y-107731522D01*
X162960776Y-107794781D01*
X162778386Y-107887715D01*
X162612786Y-108008028D01*
X162468028Y-108152786D01*
X162347715Y-108318386D01*
X162254781Y-108500776D01*
X162191522Y-108695465D01*
X162159500Y-108897648D01*
X156670500Y-108897648D01*
X156670500Y-108819778D01*
X156636015Y-108602049D01*
X156601955Y-108497221D01*
X156567896Y-108392396D01*
X156567895Y-108392393D01*
X156530186Y-108318386D01*
X156467815Y-108195978D01*
X156436431Y-108152781D01*
X156338247Y-108017641D01*
X156338243Y-108017636D01*
X156182363Y-107861756D01*
X156182358Y-107861752D01*
X156004025Y-107732187D01*
X156004024Y-107732186D01*
X156004022Y-107732185D01*
X155939875Y-107699500D01*
X155807606Y-107632104D01*
X155807603Y-107632103D01*
X155597952Y-107563985D01*
X155489086Y-107546742D01*
X155380222Y-107529500D01*
X155159778Y-107529500D01*
X155087201Y-107540995D01*
X154942047Y-107563985D01*
X154732396Y-107632103D01*
X154732393Y-107632104D01*
X154535974Y-107732187D01*
X154357641Y-107861752D01*
X154357636Y-107861756D01*
X154307075Y-107912317D01*
X154245752Y-107945801D01*
X154176060Y-107940816D01*
X154120127Y-107898945D01*
X154103213Y-107867968D01*
X154073354Y-107787913D01*
X154073350Y-107787906D01*
X153987190Y-107672812D01*
X153987187Y-107672809D01*
X153872093Y-107586649D01*
X153872086Y-107586645D01*
X153737379Y-107536403D01*
X153737372Y-107536401D01*
X153677844Y-107530000D01*
X152980000Y-107530000D01*
X152980000Y-108554722D01*
X152903694Y-108510667D01*
X152789244Y-108480000D01*
X152670756Y-108480000D01*
X152556306Y-108510667D01*
X152480000Y-108554722D01*
X152480000Y-107530000D01*
X151782155Y-107530000D01*
X151722627Y-107536401D01*
X151722620Y-107536403D01*
X151587913Y-107586645D01*
X151587906Y-107586649D01*
X151472812Y-107672809D01*
X151472809Y-107672812D01*
X151386649Y-107787906D01*
X151386645Y-107787913D01*
X151336403Y-107922620D01*
X151336401Y-107922627D01*
X151330000Y-107982155D01*
X145998424Y-107982155D01*
X145996521Y-95883994D01*
X155235618Y-95883994D01*
X155235618Y-96116005D01*
X155235619Y-96116022D01*
X155265901Y-96346040D01*
X155265904Y-96346053D01*
X155325954Y-96570167D01*
X155414742Y-96784521D01*
X155414750Y-96784538D01*
X155530754Y-96985461D01*
X155530760Y-96985469D01*
X155589735Y-97062327D01*
X156516122Y-96135941D01*
X156532237Y-96196081D01*
X156599116Y-96311920D01*
X156693698Y-96406502D01*
X156809537Y-96473381D01*
X156869676Y-96489495D01*
X155943289Y-97415881D01*
X156020148Y-97474857D01*
X156020156Y-97474863D01*
X156221079Y-97590867D01*
X156221096Y-97590875D01*
X156435450Y-97679663D01*
X156659564Y-97739713D01*
X156659577Y-97739716D01*
X156889595Y-97769998D01*
X156889613Y-97770000D01*
X157121623Y-97770000D01*
X157121640Y-97769998D01*
X157351658Y-97739716D01*
X157351671Y-97739713D01*
X157575785Y-97679663D01*
X157790139Y-97590875D01*
X157790156Y-97590867D01*
X157991093Y-97474855D01*
X158067945Y-97415883D01*
X158067945Y-97415880D01*
X157141559Y-96489495D01*
X157201699Y-96473381D01*
X157317538Y-96406502D01*
X157412120Y-96311920D01*
X157478999Y-96196081D01*
X157495113Y-96135942D01*
X158421498Y-97062327D01*
X158421501Y-97062327D01*
X158480473Y-96985475D01*
X158596485Y-96784538D01*
X158596493Y-96784521D01*
X158685281Y-96570167D01*
X158745331Y-96346053D01*
X158745334Y-96346040D01*
X158775616Y-96116022D01*
X158775618Y-96116005D01*
X158775618Y-95883994D01*
X158775616Y-95883977D01*
X158745334Y-95653959D01*
X158745331Y-95653946D01*
X158685281Y-95429832D01*
X158596493Y-95215478D01*
X158596485Y-95215461D01*
X158480481Y-95014538D01*
X158480475Y-95014530D01*
X158421499Y-94937671D01*
X157495113Y-95864057D01*
X157478999Y-95803919D01*
X157412120Y-95688080D01*
X157317538Y-95593498D01*
X157201699Y-95526619D01*
X157141559Y-95510504D01*
X157969928Y-94682135D01*
X165217318Y-94682135D01*
X165217318Y-97317870D01*
X165217319Y-97317876D01*
X165223726Y-97377483D01*
X165274020Y-97512328D01*
X165274024Y-97512335D01*
X165360270Y-97627544D01*
X165360273Y-97627547D01*
X165475482Y-97713793D01*
X165475489Y-97713797D01*
X165610335Y-97764091D01*
X165610334Y-97764091D01*
X165617262Y-97764835D01*
X165669945Y-97770500D01*
X168305690Y-97770499D01*
X168365301Y-97764091D01*
X168500149Y-97713796D01*
X168615364Y-97627546D01*
X168701614Y-97512331D01*
X168751909Y-97377483D01*
X168758318Y-97317873D01*
X168758317Y-94682128D01*
X168751909Y-94622517D01*
X168737586Y-94584116D01*
X168701615Y-94487671D01*
X168701611Y-94487664D01*
X168615365Y-94372455D01*
X168615362Y-94372452D01*
X168500153Y-94286206D01*
X168500146Y-94286202D01*
X168365300Y-94235908D01*
X168365301Y-94235908D01*
X168305701Y-94229501D01*
X168305699Y-94229500D01*
X168305691Y-94229500D01*
X168305682Y-94229500D01*
X165669947Y-94229500D01*
X165669941Y-94229501D01*
X165610334Y-94235908D01*
X165475489Y-94286202D01*
X165475482Y-94286206D01*
X165360273Y-94372452D01*
X165360270Y-94372455D01*
X165274024Y-94487664D01*
X165274020Y-94487671D01*
X165223726Y-94622517D01*
X165217319Y-94682116D01*
X165217319Y-94682123D01*
X165217318Y-94682135D01*
X157969928Y-94682135D01*
X158060938Y-94591125D01*
X158067945Y-94584117D01*
X157991087Y-94525142D01*
X157991079Y-94525136D01*
X157790156Y-94409132D01*
X157790139Y-94409124D01*
X157575785Y-94320336D01*
X157351671Y-94260286D01*
X157351658Y-94260283D01*
X157121640Y-94230001D01*
X157121623Y-94230000D01*
X156889613Y-94230000D01*
X156889595Y-94230001D01*
X156659577Y-94260283D01*
X156659564Y-94260286D01*
X156435450Y-94320336D01*
X156221096Y-94409124D01*
X156221079Y-94409132D01*
X156020159Y-94525134D01*
X156020151Y-94525140D01*
X155943289Y-94584116D01*
X155943289Y-94584117D01*
X156869676Y-95510504D01*
X156809537Y-95526619D01*
X156693698Y-95593498D01*
X156599116Y-95688080D01*
X156532237Y-95803919D01*
X156516122Y-95864058D01*
X155589735Y-94937671D01*
X155589734Y-94937671D01*
X155530758Y-95014533D01*
X155530752Y-95014541D01*
X155414750Y-95215461D01*
X155414742Y-95215478D01*
X155325954Y-95429832D01*
X155265904Y-95653946D01*
X155265901Y-95653959D01*
X155235619Y-95883977D01*
X155235618Y-95883994D01*
X145996521Y-95883994D01*
X145994827Y-85117171D01*
X146014501Y-85050130D01*
X146067298Y-85004367D01*
X146118856Y-84993153D01*
X172000000Y-85000000D01*
G37*
%TD.AperFunction*%
%TD*%
M02*
