%TF.GenerationSoftware,KiCad,Pcbnew,10.0.3*%
%TF.CreationDate,2026-06-19T18:06:59+05:30*%
%TF.ProjectId,PCB_0,5043425f-302e-46b6-9963-61645f706362,1*%
%TF.SameCoordinates,Original*%
%TF.FileFunction,Legend,Top*%
%TF.FilePolarity,Positive*%
%FSLAX46Y46*%
G04 Gerber Fmt 4.6, Leading zero omitted, Abs format (unit mm)*
G04 Created by KiCad (PCBNEW 10.0.3) date 2026-06-19 18:06:59*
%MOMM*%
%LPD*%
G01*
G04 APERTURE LIST*
%ADD10C,0.150000*%
%ADD11C,0.120000*%
G04 APERTURE END LIST*
D10*
X165249722Y-99431009D02*
X165392579Y-99478628D01*
X165392579Y-99478628D02*
X165440198Y-99526247D01*
X165440198Y-99526247D02*
X165487817Y-99621485D01*
X165487817Y-99621485D02*
X165487817Y-99764342D01*
X165487817Y-99764342D02*
X165440198Y-99859580D01*
X165440198Y-99859580D02*
X165392579Y-99907200D01*
X165392579Y-99907200D02*
X165297341Y-99954819D01*
X165297341Y-99954819D02*
X164916389Y-99954819D01*
X164916389Y-99954819D02*
X164916389Y-98954819D01*
X164916389Y-98954819D02*
X165249722Y-98954819D01*
X165249722Y-98954819D02*
X165344960Y-99002438D01*
X165344960Y-99002438D02*
X165392579Y-99050057D01*
X165392579Y-99050057D02*
X165440198Y-99145295D01*
X165440198Y-99145295D02*
X165440198Y-99240533D01*
X165440198Y-99240533D02*
X165392579Y-99335771D01*
X165392579Y-99335771D02*
X165344960Y-99383390D01*
X165344960Y-99383390D02*
X165249722Y-99431009D01*
X165249722Y-99431009D02*
X164916389Y-99431009D01*
X165773532Y-98954819D02*
X166344960Y-98954819D01*
X166059246Y-99954819D02*
X166059246Y-98954819D01*
X167202103Y-99954819D02*
X166630675Y-99954819D01*
X166916389Y-99954819D02*
X166916389Y-98954819D01*
X166916389Y-98954819D02*
X166821151Y-99097676D01*
X166821151Y-99097676D02*
X166725913Y-99192914D01*
X166725913Y-99192914D02*
X166630675Y-99240533D01*
X167821151Y-98954819D02*
X167916389Y-98954819D01*
X167916389Y-98954819D02*
X168011627Y-99002438D01*
X168011627Y-99002438D02*
X168059246Y-99050057D01*
X168059246Y-99050057D02*
X168106865Y-99145295D01*
X168106865Y-99145295D02*
X168154484Y-99335771D01*
X168154484Y-99335771D02*
X168154484Y-99573866D01*
X168154484Y-99573866D02*
X168106865Y-99764342D01*
X168106865Y-99764342D02*
X168059246Y-99859580D01*
X168059246Y-99859580D02*
X168011627Y-99907200D01*
X168011627Y-99907200D02*
X167916389Y-99954819D01*
X167916389Y-99954819D02*
X167821151Y-99954819D01*
X167821151Y-99954819D02*
X167725913Y-99907200D01*
X167725913Y-99907200D02*
X167678294Y-99859580D01*
X167678294Y-99859580D02*
X167630675Y-99764342D01*
X167630675Y-99764342D02*
X167583056Y-99573866D01*
X167583056Y-99573866D02*
X167583056Y-99335771D01*
X167583056Y-99335771D02*
X167630675Y-99145295D01*
X167630675Y-99145295D02*
X167678294Y-99050057D01*
X167678294Y-99050057D02*
X167725913Y-99002438D01*
X167725913Y-99002438D02*
X167821151Y-98954819D01*
X169106865Y-99954819D02*
X168535437Y-99954819D01*
X168821151Y-99954819D02*
X168821151Y-98954819D01*
X168821151Y-98954819D02*
X168725913Y-99097676D01*
X168725913Y-99097676D02*
X168630675Y-99192914D01*
X168630675Y-99192914D02*
X168535437Y-99240533D01*
X152309524Y-107424819D02*
X152309524Y-106424819D01*
X152309524Y-106424819D02*
X152547619Y-106424819D01*
X152547619Y-106424819D02*
X152690476Y-106472438D01*
X152690476Y-106472438D02*
X152785714Y-106567676D01*
X152785714Y-106567676D02*
X152833333Y-106662914D01*
X152833333Y-106662914D02*
X152880952Y-106853390D01*
X152880952Y-106853390D02*
X152880952Y-106996247D01*
X152880952Y-106996247D02*
X152833333Y-107186723D01*
X152833333Y-107186723D02*
X152785714Y-107281961D01*
X152785714Y-107281961D02*
X152690476Y-107377200D01*
X152690476Y-107377200D02*
X152547619Y-107424819D01*
X152547619Y-107424819D02*
X152309524Y-107424819D01*
X153833333Y-107424819D02*
X153261905Y-107424819D01*
X153547619Y-107424819D02*
X153547619Y-106424819D01*
X153547619Y-106424819D02*
X153452381Y-106567676D01*
X153452381Y-106567676D02*
X153357143Y-106662914D01*
X153357143Y-106662914D02*
X153261905Y-106710533D01*
X154452381Y-106424819D02*
X154547619Y-106424819D01*
X154547619Y-106424819D02*
X154642857Y-106472438D01*
X154642857Y-106472438D02*
X154690476Y-106520057D01*
X154690476Y-106520057D02*
X154738095Y-106615295D01*
X154738095Y-106615295D02*
X154785714Y-106805771D01*
X154785714Y-106805771D02*
X154785714Y-107043866D01*
X154785714Y-107043866D02*
X154738095Y-107234342D01*
X154738095Y-107234342D02*
X154690476Y-107329580D01*
X154690476Y-107329580D02*
X154642857Y-107377200D01*
X154642857Y-107377200D02*
X154547619Y-107424819D01*
X154547619Y-107424819D02*
X154452381Y-107424819D01*
X154452381Y-107424819D02*
X154357143Y-107377200D01*
X154357143Y-107377200D02*
X154309524Y-107329580D01*
X154309524Y-107329580D02*
X154261905Y-107234342D01*
X154261905Y-107234342D02*
X154214286Y-107043866D01*
X154214286Y-107043866D02*
X154214286Y-106805771D01*
X154214286Y-106805771D02*
X154261905Y-106615295D01*
X154261905Y-106615295D02*
X154309524Y-106520057D01*
X154309524Y-106520057D02*
X154357143Y-106472438D01*
X154357143Y-106472438D02*
X154452381Y-106424819D01*
X155738095Y-107424819D02*
X155166667Y-107424819D01*
X155452381Y-107424819D02*
X155452381Y-106424819D01*
X155452381Y-106424819D02*
X155357143Y-106567676D01*
X155357143Y-106567676D02*
X155261905Y-106662914D01*
X155261905Y-106662914D02*
X155166667Y-106710533D01*
X163610952Y-107084819D02*
X163277619Y-106608628D01*
X163039524Y-107084819D02*
X163039524Y-106084819D01*
X163039524Y-106084819D02*
X163420476Y-106084819D01*
X163420476Y-106084819D02*
X163515714Y-106132438D01*
X163515714Y-106132438D02*
X163563333Y-106180057D01*
X163563333Y-106180057D02*
X163610952Y-106275295D01*
X163610952Y-106275295D02*
X163610952Y-106418152D01*
X163610952Y-106418152D02*
X163563333Y-106513390D01*
X163563333Y-106513390D02*
X163515714Y-106561009D01*
X163515714Y-106561009D02*
X163420476Y-106608628D01*
X163420476Y-106608628D02*
X163039524Y-106608628D01*
X164563333Y-107084819D02*
X163991905Y-107084819D01*
X164277619Y-107084819D02*
X164277619Y-106084819D01*
X164277619Y-106084819D02*
X164182381Y-106227676D01*
X164182381Y-106227676D02*
X164087143Y-106322914D01*
X164087143Y-106322914D02*
X163991905Y-106370533D01*
X165182381Y-106084819D02*
X165277619Y-106084819D01*
X165277619Y-106084819D02*
X165372857Y-106132438D01*
X165372857Y-106132438D02*
X165420476Y-106180057D01*
X165420476Y-106180057D02*
X165468095Y-106275295D01*
X165468095Y-106275295D02*
X165515714Y-106465771D01*
X165515714Y-106465771D02*
X165515714Y-106703866D01*
X165515714Y-106703866D02*
X165468095Y-106894342D01*
X165468095Y-106894342D02*
X165420476Y-106989580D01*
X165420476Y-106989580D02*
X165372857Y-107037200D01*
X165372857Y-107037200D02*
X165277619Y-107084819D01*
X165277619Y-107084819D02*
X165182381Y-107084819D01*
X165182381Y-107084819D02*
X165087143Y-107037200D01*
X165087143Y-107037200D02*
X165039524Y-106989580D01*
X165039524Y-106989580D02*
X164991905Y-106894342D01*
X164991905Y-106894342D02*
X164944286Y-106703866D01*
X164944286Y-106703866D02*
X164944286Y-106465771D01*
X164944286Y-106465771D02*
X164991905Y-106275295D01*
X164991905Y-106275295D02*
X165039524Y-106180057D01*
X165039524Y-106180057D02*
X165087143Y-106132438D01*
X165087143Y-106132438D02*
X165182381Y-106084819D01*
X166468095Y-107084819D02*
X165896667Y-107084819D01*
X166182381Y-107084819D02*
X166182381Y-106084819D01*
X166182381Y-106084819D02*
X166087143Y-106227676D01*
X166087143Y-106227676D02*
X165991905Y-106322914D01*
X165991905Y-106322914D02*
X165896667Y-106370533D01*
%TO.C,BT101*%
D11*
X168613418Y-98578100D02*
X168613418Y-93421900D01*
X168613418Y-98578100D02*
X164177818Y-98578100D01*
X168613418Y-93421900D02*
X164177818Y-93421900D01*
X166987818Y-93000000D02*
X166987818Y-92000000D01*
X166487818Y-92500000D02*
X167487818Y-92500000D01*
X164177818Y-98578100D02*
G75*
G02*
X164177818Y-93421900I-7172200J2578100D01*
G01*
%TO.C,D101*%
X155560000Y-114000000D02*
G75*
G02*
X152440000Y-114000000I-1560000J0D01*
G01*
X155560000Y-110140000D02*
X155960000Y-110140000D01*
X155960000Y-111260000D01*
X155560000Y-111260000D01*
X155560000Y-110140000D01*
X155270000Y-110010000D02*
X155270000Y-110140000D01*
X155270000Y-110010000D01*
X152730000Y-110010000D02*
X152730000Y-110140000D01*
X152730000Y-110010000D01*
X155560000Y-110140000D02*
X155560000Y-114000000D01*
X152440000Y-110140000D02*
X155560000Y-110140000D01*
X152440000Y-110140000D02*
X152440000Y-114000000D01*
%TO.C,R101*%
X164830000Y-109000000D02*
X164900000Y-109000000D01*
X164830000Y-109000000D02*
G75*
G02*
X162090000Y-109000000I-1370000J0D01*
G01*
X162090000Y-109000000D02*
G75*
G02*
X164830000Y-109000000I1370000J0D01*
G01*
%TD*%
M02*
